<?xml version="1.0" standalone="no"?><!DOCTYPE svg PUBLIC "-//W3C//DTD SVG 1.1//EN" "http://www.w3.org/Graphics/SVG/1.1/DTD/svg11.dtd"><svg t="1540914447581" class="icon" style="" viewBox="0 0 1024 1024" version="1.1" xmlns="http://www.w3.org/2000/svg" p-id="4162" xmlns:xlink="http://www.w3.org/1999/xlink" width="32" height="32"><defs><style type="text/css"></style></defs><path d="M896 896H96a32 32 0 0 1-32-32V224a32 32 0 0 1 64 0v608h768a32 32 0 1 1 0 64z" p-id="4163" fill="#ffffff"></path><path d="M512 752.16a32 32 0 0 1-32-32V350.624a32 32 0 0 1 64 0v369.536a32 32 0 0 1-32 32zM320 752.576a32 32 0 0 1-32-32V512a32 32 0 0 1 64 0v208.576a32 32 0 0 1-32 32zM896 752.672a32 32 0 0 1-32-32V163.488a32 32 0 1 1 64 0v557.184a32 32 0 0 1-32 32zM704 752.736a32 32 0 0 1-32-32V224a32 32 0 1 1 64 0v496.736a32 32 0 0 1-32 32z" p-id="4164" fill="#ffffff"></path></svg>