<?xml version="1.0" standalone="no"?><!DOCTYPE svg PUBLIC "-//W3C//DTD SVG 1.1//EN" "http://www.w3.org/Graphics/SVG/1.1/DTD/svg11.dtd"><svg t="1572076954107" class="icon" viewBox="0 0 1024 1024" version="1.1" xmlns="http://www.w3.org/2000/svg" p-id="914" width="32" height="32" xmlns:xlink="http://www.w3.org/1999/xlink"><defs><style type="text/css"></style></defs><path d="M792.3712 394.5984a24.4224 24.4224 0 0 0-24.2688-24.576h-77.7216a24.4736 24.4736 0 0 0-24.2688 24.576c0 13.568 10.8544 24.576 24.2688 24.576h77.7216a24.4224 24.4224 0 0 0 24.2688-24.576zM558.592 812.1344H465.408a24.4224 24.4224 0 0 0-24.2688 24.5248c0 13.5168 10.8544 24.5248 24.2688 24.5248h93.2352a24.4224 24.4224 0 0 0 24.2176-24.5248 24.3712 24.3712 0 0 0-24.2688-24.5248zM659.3536 812.032v49.152c0 49.152 49.1008 47.2064 49.1008 0v-49.152c0-48.8448-49.1008-48.8448-49.1008 0zM315.5456 812.032v49.152c0 52.6336 49.1008 49.7152 49.1008 0v-49.152c0-48.7424-49.1008-50.2784-49.1008 0z" fill="#ffffff" p-id="915"></path><path d="M851.5584 124.416H178.8416c-31.8464 0-59.7504 26.7776-59.7504 57.2928V803.84c0 30.5152 27.904 57.2928 59.7504 57.2928h43.3664a24.4224 24.4224 0 0 0 24.2176-24.5248 24.4224 24.4224 0 0 0-24.2176-24.5248h-43.3664c-5.6832 0-11.264-5.2224-11.264-8.2432V181.76c0-3.0208 5.5808-8.2432 11.264-8.2432h672.768c4.5056 0 4.8128 6.3488 4.8128 8.2432v622.1312c0 1.8944-0.3584 8.2432-4.8128 8.2432h-49.92a24.4224 24.4224 0 0 0-24.2176 24.5248c0 13.5168 10.8544 24.5248 24.2176 24.5248h49.92c30.4128 0 53.3504-24.576 53.3504-57.2928V181.76c-0.0512-32.7168-22.9888-57.344-53.4016-57.344z" fill="#ffffff" p-id="916"></path><path d="M690.3808 320.9216h77.7216a24.4736 24.4736 0 0 0 24.2688-24.576 24.4224 24.4224 0 0 0-24.2688-24.576h-77.7216a24.4736 24.4736 0 0 0-24.2688 24.576c0 13.568 10.9056 24.576 24.2688 24.576zM391.4752 510.5152c-97.1776 18.6368-174.0288 74.1888-174.0288 126.2592 0 63.8976 98.048 77.0048 245.2992 77.0048h0.1536c147.2512 0 245.2992-13.1072 245.2992-77.0048 0-52.0704-76.8512-107.6224-174.0288-126.2592a11.7248 11.7248 0 0 1-8.2944-8.2944 14.2336 14.2336 0 0 1 3.7888-14.0288c32.3072-31.1808 52.3776-81.8176 52.3776-132.096 0-77.312-50.1248-133.4272-119.1936-133.4272h-0.1024c-69.0688 0-119.1936 56.1152-119.1936 133.4272 0 50.2784 20.0704 100.9152 52.3776 132.096 5.1712 5.4272 4.608 11.1616 3.7888 14.0288a11.7248 11.7248 0 0 1-8.2432 8.2944z m35.3792-50.944c-23.9104-22.9888-38.912-61.5936-38.912-98.9696 0-52.736 30.1056-88.2176 74.8032-88.2176h0.1536c44.7488 0 74.8032 35.4816 74.8032 88.2176 0 37.376-15.0528 75.9296-38.912 98.9696-14.2336 14.8992-19.456 34.9696-13.8752 53.7088 5.3248 17.9712 19.7632 31.7952 38.5536 36.3008 82.0736 15.7184 136.5504 59.8528 136.5504 82.176 0 10.0864-19.2 33.6384-197.12 33.6384h-0.1536c-177.8688 0-197.12-23.552-197.12-33.6384 0-22.3232 54.4768-66.4576 136.5504-82.176 18.7904-4.5056 33.2288-18.3296 38.5536-36.3008a54.6816 54.6816 0 0 0-13.8752-53.7088z" fill="#ffffff" p-id="917"></path></svg>