<?xml version="1.0" standalone="no"?><!DOCTYPE svg PUBLIC "-//W3C//DTD SVG 1.1//EN" "http://www.w3.org/Graphics/SVG/1.1/DTD/svg11.dtd"><svg t="1572077243104" class="icon" viewBox="0 0 1024 1024" version="1.1" xmlns="http://www.w3.org/2000/svg" p-id="4918" width="32" height="32" xmlns:xlink="http://www.w3.org/1999/xlink"><defs><style type="text/css"></style></defs><path d="M721.454545 977.454545h-69.818181v-4.654545c0-32.581818-16.290909-65.163636-46.545455-83.781818-13.963636-9.309091-23.272727-27.927273-23.272727-44.218182V651.636364h116.363636c13.963636 0 23.272727-9.309091 23.272727-23.272728v-186.181818c0-13.963636-9.309091-23.272727-23.272727-23.272727h-116.363636v-69.818182c0-13.963636-9.309091-23.272727-23.272727-23.272727s-23.272727 9.309091-23.272728 23.272727v93.090909c0 6.981818 2.327273 11.636364 6.981818 16.290909s9.309091 6.981818 16.29091 6.981818h116.363636v139.636364h-116.363636c-13.963636 0-23.272727 9.309091-23.272728 23.272727v214.109091c0 32.581818 16.290909 65.163636 46.545455 83.781818 13.963636 9.309091 23.272727 27.927273 23.272727 44.218182v6.981818h-186.181818v-4.654545c0-18.618182 9.309091-34.909091 25.6-46.545455 27.927273-18.618182 44.218182-51.2 44.218182-83.781818V628.363636c0-13.963636-9.309091-23.272727-23.272728-23.272727h-223.418181l-69.818182-69.818182 69.818182-69.818182H372.363636c13.963636 0 23.272727-9.309091 23.272728-23.272727s-9.309091-23.272727-23.272728-23.272727h-139.636363c-6.981818 0-11.636364 2.327273-16.290909 6.981818l-93.090909 93.090909c-9.309091 9.309091-9.309091 23.272727 0 32.581818l93.090909 93.090909c4.654545 4.654545 9.309091 6.981818 16.290909 6.981819h209.454545v190.836363c0 18.618182-9.309091 34.909091-25.6 46.545455-27.927273 18.618182-44.218182 48.872727-44.218182 83.781818v4.654545h-69.818181c-13.963636 0-23.272727 9.309091-23.272728 23.272728s9.309091 23.272727 23.272728 23.272727h418.90909c13.963636 0 23.272727-9.309091 23.272728-23.272727s-9.309091-23.272727-23.272728-23.272728z" p-id="4919" fill="#ffffff"></path><path d="M900.654545 239.709091l-93.090909-93.090909c-4.654545-4.654545-9.309091-6.981818-16.290909-6.981818h-209.454545V69.818182c0-39.563636-30.254545-69.818182-69.818182-69.818182s-69.818182 30.254545-69.818182 69.818182v69.818182h-116.363636c-13.963636 0-23.272727 9.309091-23.272727 23.272727v186.181818c0 13.963636 9.309091 23.272727 23.272727 23.272727h116.363636v69.818182c0 13.963636 9.309091 23.272727 23.272727 23.272727s23.272727-9.309091 23.272728-23.272727v-93.090909c0-13.963636-9.309091-23.272727-23.272728-23.272727h-116.363636V186.181818h116.363636c13.963636 0 23.272727-9.309091 23.272728-23.272727V69.818182c0-13.963636 9.309091-23.272727 23.272727-23.272727s23.272727 9.309091 23.272727 23.272727v93.090909c0 13.963636 9.309091 23.272727 23.272728 23.272727h223.418181l69.818182 69.818182-69.818182 69.818182H651.636364c-13.963636 0-23.272727 9.309091-23.272728 23.272727s9.309091 23.272727 23.272728 23.272727h139.636363c6.981818 0 11.636364-2.327273 16.290909-6.981818l93.090909-93.090909c9.309091-9.309091 9.309091-23.272727 0-32.581818z" p-id="4920" fill="#ffffff"></path></svg>