<?xml version="1.0" standalone="no"?><!DOCTYPE svg PUBLIC "-//W3C//DTD SVG 1.1//EN" "http://www.w3.org/Graphics/SVG/1.1/DTD/svg11.dtd"><svg t="1572077149582" class="icon" viewBox="0 0 1024 1024" version="1.1" xmlns="http://www.w3.org/2000/svg" p-id="3015" width="32" height="32" xmlns:xlink="http://www.w3.org/1999/xlink"><defs><style type="text/css"></style></defs><path d="M496.896 512c35.2-39.296 86.272-64 143.104-64h192a192 192 0 0 1 192 192v128h-256v192H0v-192a256 256 0 0 1 256-256h240.896z m263.04 192H960v-64a128 128 0 0 0-128-128h-192c-18.752 0-36.544 4.032-52.608 11.264A256.512 256.512 0 0 1 759.936 704zM384 448a192 192 0 1 1 0-384 192 192 0 0 1 0 384z m0-64a128 128 0 1 0 0-256 128 128 0 0 0 0 256z m352 0a128 128 0 1 1 0-256 128 128 0 0 1 0 256z m0-64a64 64 0 1 0 0-128 64 64 0 0 0 0 128zM256 576a192 192 0 0 0-192 192v128h640v-128a192 192 0 0 0-192-192H256z" fill="#ffffff" p-id="3016"></path></svg>