<?xml version="1.0" standalone="no"?><!DOCTYPE svg PUBLIC "-//W3C//DTD SVG 1.1//EN" "http://www.w3.org/Graphics/SVG/1.1/DTD/svg11.dtd"><svg t="1540913133325" class="icon" style="" viewBox="0 0 1024 1024" version="1.1" xmlns="http://www.w3.org/2000/svg" p-id="3810" xmlns:xlink="http://www.w3.org/1999/xlink" width="32" height="32"><defs><style type="text/css"></style></defs><path d="M192 160a32 32 0 0 0-32 32v192a32 32 0 0 0 32 32h192a32 32 0 0 0 32-32V192a32 32 0 0 0-32-32H192z m0-64h192a96 96 0 0 1 96 96v192a96 96 0 0 1-96 96H192a96 96 0 0 1-96-96V192a96 96 0 0 1 96-96zM192 608a32 32 0 0 0-32 32v192a32 32 0 0 0 32 32h192a32 32 0 0 0 32-32v-192a32 32 0 0 0-32-32H192z m0-64h192a96 96 0 0 1 96 96v192a96 96 0 0 1-96 96H192a96 96 0 0 1-96-96v-192a96 96 0 0 1 96-96zM640 608a32 32 0 0 0-32 32v192a32 32 0 0 0 32 32h192a32 32 0 0 0 32-32v-192a32 32 0 0 0-32-32h-192z m0-64h192a96 96 0 0 1 96 96v192a96 96 0 0 1-96 96h-192a96 96 0 0 1-96-96v-192a96 96 0 0 1 96-96zM602.272 266.272a32 32 0 0 0 0 45.28l112 112a32 32 0 0 0 45.28 0l112-112a32 32 0 0 0 0-45.28l-112-112a32 32 0 0 0-45.28 0l-112 112z m-45.248-45.248l112-112a96 96 0 0 1 135.776 0l112 112a96 96 0 0 1 0 135.776l-112 112a96 96 0 0 1-135.776 0l-112-112a96 96 0 0 1 0-135.776z" p-id="3811" fill="#ffffff"></path></svg>