<?xml version="1.0" standalone="no"?><!DOCTYPE svg PUBLIC "-//W3C//DTD SVG 1.1//EN" "http://www.w3.org/Graphics/SVG/1.1/DTD/svg11.dtd"><svg t="1540913008329" class="icon" style="" viewBox="0 0 1024 1024" version="1.1" xmlns="http://www.w3.org/2000/svg" p-id="3634" xmlns:xlink="http://www.w3.org/1999/xlink" width="32" height="32"><defs><style type="text/css"></style></defs><path d="M928 544h-96v-64h96a32 32 0 0 0 0-64h-128a32 32 0 0 0-32 32v227.84A143.872 143.872 0 0 0 800 960a144 144 0 0 0 144-144 143.904 143.904 0 0 0-112-140.16V608h96a32 32 0 0 0 0-64z m-48 272a80 80 0 1 1-160 0 80 80 0 0 1 160 0z" p-id="3635" fill="#ffffff"></path><path d="M572.608 886.752l-0.864 0.288c-198.752 14.464-419.68-2.464-466.592-26.912 11.264-30.208 82.88-74.784 222.88-90.144a32 32 0 0 0 28.512-31.808v-38.048c0-10.848-5.504-20.96-14.624-26.88-51.2-33.088-96.128-87.552-123.264-149.376a32.256 32.256 0 0 0-15.04-15.808c-8.672-4.32-21.728-19.904-34.656-69.696-4.96-19.072-1.568-32.768 10.624-43.04 6.816-5.76 10.912-14.08 11.328-23.008C197.76 219.328 283.2 128 419.392 128c133.472 0 215.104 86.528 223.936 237.376 0.608 10.144 5.984 19.392 14.464 24.928 12.992 8.48 16.896 20.608 12.384 38.144-12.544 48.288-25.024 58.464-29.856 60.576a31.968 31.968 0 0 0-17.056 18.176c-24.992 67.808-72.352 129.728-126.656 165.664a32 32 0 0 0-14.336 26.688v38.592a32 32 0 0 0 28.512 31.808c11.296 1.216 28.96 3.968 53.056 8.16 17.376 2.912 33.984-8.672 36.992-26.048s-8.672-33.984-26.048-36.992a1699.968 1699.968 0 0 0-22.112-3.712c54.08-42.016 99.136-102.816 126.464-171.04 30.112-20.96 44.096-61.472 52.992-95.776 9.888-38.08 0.192-73.408-25.984-97.472C690.56 172.032 581.76 64 419.392 64c-168 0-278.848 111.776-291.712 292.672-22.816 25.6-30.368 60.448-20.672 97.728 13.984 53.856 31.904 86.784 57.28 104.512 28.224 60.224 71.04 114.144 120.48 152.192-150.176 23.328-245.216 83.328-245.216 157.088 0 9.088 2.816 22.56 16.192 35.008 43.2 40.064 211.488 52.864 360.32 52.864 61.408 0 119.52-2.176 164.128-5.536 2.496-0.192 4.96-0.672 7.36-1.44l4.512-1.44a32 32 0 0 0 20.704-40.224 31.776 31.776 0 0 0-40.16-20.672z" p-id="3636" fill="#ffffff"></path></svg>